<svg version="1.1" viewBox="0.0 0.0 960.0 720.0" fill="none" stroke="none" stroke-linecap="square" stroke-miterlimit="10" xmlns:xlink="http://www.w3.org/1999/xlink" xmlns="http://www.w3.org/2000/svg"><clipPath id="p.0"><path d="m0 0l960.0 0l0 720.0l-960.0 0l0 -720.0z" clip-rule="nonzero"/></clipPath><g clip-path="url(#p.0)"><path fill="#000000" fill-opacity="0.0" d="m0 0l960.0 0l0 720.0l-960.0 0z" fill-rule="evenodd"/><path fill="#0099cb" d="m539.2255 367.54153l0 0c0 -39.32962 30.656128 -71.212585 68.47241 -71.212585l0 0c18.160034 0 35.576233 7.502716 48.417297 20.857666c12.8411255 13.35495 20.055115 31.46817 20.055115 50.35492l0 0c0 39.32962 -30.656128 71.212585 -68.47241 71.212585l0 0c-37.816284 0 -68.47241 -31.882965 -68.47241 -71.212585z" fill-rule="evenodd"/><path stroke="#01b5f0" stroke-width="1.0" stroke-linejoin="round" stroke-linecap="butt" d="m539.2255 367.54153l0 0c0 -39.32962 30.656128 -71.212585 68.47241 -71.212585l0 0c18.160034 0 35.576233 7.502716 48.417297 20.857666c12.8411255 13.35495 20.055115 31.46817 20.055115 50.35492l0 0c0 39.32962 -30.656128 71.212585 -68.47241 71.212585l0 0c-37.816284 0 -68.47241 -31.882965 -68.47241 -71.212585z" fill-rule="evenodd"/><path fill="#526574" d="m341.79572 472.51938l0 0c0 -72.21451 61.876343 -130.75592 138.20471 -130.75592l0 0c36.654175 0 71.80707 13.7760315 97.725525 38.297516c25.918396 24.521515 40.479187 57.779785 40.479187 92.458405l0 0c0 72.21451 -61.876343 130.75589 -138.20471 130.75589l0 0c-76.32837 0 -138.20471 -58.54138 -138.20471 -130.75589z" fill-rule="evenodd"/><path stroke="#657786" stroke-width="1.0" stroke-linejoin="round" stroke-linecap="butt" d="m341.79572 472.51938l0 0c0 -72.21451 61.876343 -130.75592 138.20471 -130.75592l0 0c36.654175 0 71.80707 13.7760315 97.725525 38.297516c25.918396 24.521515 40.479187 57.779785 40.479187 92.458405l0 0c0 72.21451 -61.876343 130.75589 -138.20471 130.75589l0 0c-76.32837 0 -138.20471 -58.54138 -138.20471 -130.75589z" fill-rule="evenodd"/><path fill="#ffa30c" d="m265.5223 357.72693l0 0c0 -56.28955 45.33557 -101.921265 101.25986 -101.921265l0 0c26.855774 0 52.611603 10.738098 71.60153 29.85205c18.989899 19.113953 29.658295 45.038025 29.658295 72.069214l0 0c0 56.28955 -45.33557 101.921265 -101.25983 101.921265l0 0c-55.924286 0 -101.25986 -45.631714 -101.25986 -101.921265z" fill-rule="evenodd"/><path stroke="#ffa30c" stroke-width="1.0" stroke-linejoin="round" stroke-linecap="butt" d="m265.5223 357.72693l0 0c0 -56.28955 45.33557 -101.921265 101.25986 -101.921265l0 0c26.855774 0 52.611603 10.738098 71.60153 29.85205c18.989899 19.113953 29.658295 45.038025 29.658295 72.069214l0 0c0 56.28955 -45.33557 101.921265 -101.25983 101.921265l0 0c-55.924286 0 -101.25986 -45.631714 -101.25986 -101.921265z" fill-rule="evenodd"/><path fill="#be0072" d="m486.93573 209.7507l0 0c0 -25.431183 21.180084 -46.04724 47.307068 -46.04724l0 0c12.546631 0 24.579346 4.8513947 33.45117 13.486923c8.871765 8.635529 13.855896 20.347824 13.855896 32.560318l0 0c0 25.431198 -21.180054 46.04724 -47.307068 46.04724l0 0c-26.126984 0 -47.307068 -20.616043 -47.307068 -46.04724z" fill-rule="evenodd"/><path stroke="#f60094" stroke-width="1.0" stroke-linejoin="round" stroke-linecap="butt" d="m486.93573 209.7507l0 0c0 -25.431183 21.180084 -46.04724 47.307068 -46.04724l0 0c12.546631 0 24.579346 4.8513947 33.45117 13.486923c8.871765 8.635529 13.855896 20.347824 13.855896 32.560318l0 0c0 25.431198 -21.180054 46.04724 -47.307068 46.04724l0 0c-26.126984 0 -47.307068 -20.616043 -47.307068 -46.04724z" fill-rule="evenodd"/><path fill="#79ab15" d="m639.6743 242.29326l0 0c0 -14.924728 12.268066 -27.02362 27.40155 -27.02362l0 0c7.267395 0 14.237061 2.8471222 19.375854 7.915039c5.138794 5.0679016 8.025757 11.941467 8.025757 19.108582l0 0c0 14.924728 -12.268127 27.023636 -27.401611 27.023636l0 0c-15.133484 0 -27.40155 -12.098907 -27.40155 -27.023636z" fill-rule="evenodd"/><path stroke="#9ac93b" stroke-width="1.0" stroke-linejoin="round" stroke-linecap="butt" d="m639.6743 242.29326l0 0c0 -14.924728 12.268066 -27.02362 27.40155 -27.02362l0 0c7.267395 0 14.237061 2.8471222 19.375854 7.915039c5.138794 5.0679016 8.025757 11.941467 8.025757 19.108582l0 0c0 14.924728 -12.268127 27.023636 -27.401611 27.023636l0 0c-15.133484 0 -27.40155 -12.098907 -27.40155 -27.023636z" fill-rule="evenodd"/><path fill="#ffffff" d="m468.042 425.1181l67.02362 45.61075l-67.02362 49.192413z" fill-rule="evenodd"/><path stroke="#ffffff" stroke-width="1.0" stroke-linejoin="round" stroke-linecap="butt" d="m468.042 425.1181l67.02362 45.61075l-67.02362 49.192413z" fill-rule="evenodd"/></g></svg>