<svg version="1.1" viewBox="0.0 0.0 410.20472440944883 427.40944881889766" fill="none" stroke="none" stroke-linecap="square" stroke-miterlimit="10" xmlns:xlink="http://www.w3.org/1999/xlink" xmlns="http://www.w3.org/2000/svg"><clipPath id="p.0"><path d="m0 0l410.2047 0l0 427.40945l-410.2047 0l0 -427.40945z" clip-rule="nonzero"/></clipPath><g clip-path="url(#p.0)"><path fill="#000000" fill-opacity="0.0" d="m0 0l410.2047 0l0 427.40945l-410.2047 0z" fill-rule="evenodd"/><path fill="#0099cb" d="m260.15817 197.21686l0 0c0 -38.051117 29.140259 -68.897644 65.08661 -68.897644l0 0c17.262024 0 33.817078 7.258835 46.023193 20.179657c12.206085 12.920807 19.063416 30.44519 19.063416 48.717987l0 0c0 38.0511 -29.140259 68.897644 -65.08661 68.897644l0 0c-35.94635 0 -65.08661 -30.846542 -65.08661 -68.897644z" fill-rule="evenodd"/><path stroke="#01b5f0" stroke-width="1.0" stroke-linejoin="round" stroke-linecap="butt" d="m260.15817 197.21686l0 0c0 -38.051117 29.140259 -68.897644 65.08661 -68.897644l0 0c17.262024 0 33.817078 7.258835 46.023193 20.179657c12.206085 12.920807 19.063416 30.44519 19.063416 48.717987l0 0c0 38.0511 -29.140259 68.897644 -65.08661 68.897644l0 0c-35.94635 0 -65.08661 -30.846542 -65.08661 -68.897644z" fill-rule="evenodd"/><path fill="#526574" d="m72.498764 298.78247l0 0c0 -69.86621 58.81639 -126.50395 131.37007 -126.50395l0 0c34.841522 0 68.25601 13.328064 92.89267 37.052155c24.636688 23.72409 38.477417 55.900864 38.477417 89.4518l0 0c0 69.86618 -58.816376 126.50394 -131.37009 126.50394l0 0c-72.55368 0 -131.37007 -56.637756 -131.37007 -126.50394z" fill-rule="evenodd"/><path stroke="#657786" stroke-width="1.0" stroke-linejoin="round" stroke-linecap="butt" d="m72.498764 298.78247l0 0c0 -69.86621 58.81639 -126.50395 131.37007 -126.50395l0 0c34.841522 0 68.25601 13.328064 92.89267 37.052155c24.636688 23.72409 38.477417 55.900864 38.477417 89.4518l0 0c0 69.86618 -58.816376 126.50394 -131.37009 126.50394l0 0c-72.55368 0 -131.37007 -56.637756 -131.37007 -126.50394z" fill-rule="evenodd"/><path fill="#ffa30c" d="m-1.1548556E-5 187.72588l0 0c0 -54.463104 43.093475 -98.61417 96.251976 -98.61417l0 0c25.527603 0 50.009666 10.389679 68.06042 28.883423c18.05075 18.493744 28.191544 43.576645 28.191544 69.73074l0 0c0 54.463104 -43.093475 98.61418 -96.25196 98.61418l0 0c-53.158497 0 -96.251976 -44.151077 -96.251976 -98.61418z" fill-rule="evenodd"/><path stroke="#ffa30c" stroke-width="1.0" stroke-linejoin="round" stroke-linecap="butt" d="m-1.1548556E-5 187.72588l0 0c0 -54.463104 43.093475 -98.61417 96.251976 -98.61417l0 0c25.527603 0 50.009666 10.389679 68.06042 28.883423c18.05075 18.493744 28.191544 43.576645 28.191544 69.73074l0 0c0 54.463104 -43.093475 98.61418 -96.25196 98.61418l0 0c-53.158497 0 -96.251976 -44.151077 -96.251976 -98.61418z" fill-rule="evenodd"/><path fill="#be0072" d="m210.4561 44.55118l0 0c0 -24.604937 20.129547 -44.55118 44.960617 -44.55118l0 0c11.924316 0 23.36023 4.693772 31.791962 13.0487385c8.431763 8.354967 13.168671 19.686733 13.168671 31.502441l0 0c0 24.604939 -20.129547 44.55118 -44.960632 44.55118l0 0c-24.83107 0 -44.960617 -19.946243 -44.960617 -44.55118z" fill-rule="evenodd"/><path stroke="#f60094" stroke-width="1.0" stroke-linejoin="round" stroke-linecap="butt" d="m210.4561 44.55118l0 0c0 -24.604937 20.129547 -44.55118 44.960617 -44.55118l0 0c11.924316 0 23.36023 4.693772 31.791962 13.0487385c8.431763 8.354967 13.168671 19.686733 13.168671 31.502441l0 0c0 24.604939 -20.129547 44.55118 -44.960632 44.55118l0 0c-24.83107 0 -44.960617 -19.946243 -44.960617 -44.55118z" fill-rule="evenodd"/><path fill="#79ab15" d="m355.63596 76.03359l0 0c0 -14.437679 11.661774 -26.141731 26.047241 -26.141731l0 0c6.9081726 0 13.533386 2.7542114 18.418213 7.6567345c4.884796 4.902527 7.629059 11.551777 7.629059 18.484997l0 0c0 14.437683 -11.661774 26.141731 -26.047272 26.141731l0 0c-14.385468 0 -26.047241 -11.704048 -26.047241 -26.141731z" fill-rule="evenodd"/><path stroke="#9ac93b" stroke-width="1.0" stroke-linejoin="round" stroke-linecap="butt" d="m355.63596 76.03359l0 0c0 -14.437679 11.661774 -26.141731 26.047241 -26.141731l0 0c6.9081726 0 13.533386 2.7542114 18.418213 7.6567345c4.884796 4.902527 7.629059 11.551777 7.629059 18.484997l0 0c0 14.437683 -11.661774 26.141731 -26.047272 26.141731l0 0c-14.385468 0 -26.047241 -11.704048 -26.047241 -26.141731z" fill-rule="evenodd"/><path fill="#ffffff" d="m192.48761 252.9267l63.716522 44.125732l-63.716522 47.59079z" fill-rule="evenodd"/><path stroke="#ffffff" stroke-width="1.0" stroke-linejoin="round" stroke-linecap="butt" d="m192.48761 252.9267l63.716522 44.125732l-63.716522 47.59079z" fill-rule="evenodd"/></g></svg>